<?xml version="1.0" encoding="UTF-8"?>
<svg id="Layer_1" data-name="Layer 1" xmlns="http://www.w3.org/2000/svg" viewBox="0 0 450.25 158.89">
  <path d="m63.68.1c-.15.33-.29.68-.47,1-4.38,7.89-7.84,16.17-10.59,24.75-1.46,4.54-2.59,9.18-3.35,13.9-.84,5.29-1.21,10.6-.64,15.94,1.17,10.93,5.63,20.14,14.47,26.95,4.98,3.84,10.62,6.29,16.77,7.7,3.98.91,7.97,1.38,12.04,1.3,3.58-.07,7.16-.03,10.73-.25,5.72-.36,11.38-1.3,17-2.45,6.84-1.39,13.59-3.11,20.3-5.05,6.21-1.79,12.43-3.51,18.64-5.27,3.77-1.07,7.51-2.21,11.29-3.24,5.52-1.51,11.06-2.95,16.6-4.42,6.78-1.8,13.56-3.61,20.35-5.41,6.2-1.64,12.41-3.25,18.61-4.89,3.58-.95,7.14-1.94,10.72-2.88,4.79-1.26,9.59-2.47,14.37-3.73,6.45-1.7,12.9-3.43,19.35-5.14,3.99-1.06,7.98-2.15,11.98-3.2,5.7-1.49,11.42-2.95,17.12-4.43,4.33-1.12,8.67-2.24,13-3.38,3.66-.97,7.31-1.98,10.98-2.95,2.75-.73,5.51-1.4,8.25-2.12,5.12-1.35,10.23-2.72,15.35-4.07,3.12-.83,6.25-1.63,9.37-2.46,5.12-1.36,10.23-2.75,15.35-4.1,5.08-1.34,10.17-2.63,15.25-3.96,3.5-.92,6.99-1.86,10.48-2.79,7.82-2.07,15.64-4.13,23.46-6.2,7.2-1.9,14.4-3.81,21.6-5.72,2.37-.63,4.75-1.25,7.12-1.87.33-.08.66-.14,1.06-.06-.14.1-.26.24-.41.3-5.49,2.38-10.99,4.75-16.48,7.11-3.01,1.29-6.02,2.56-9.03,3.85-7.12,3.06-14.24,6.11-21.36,9.18-5.26,2.27-10.49,4.59-15.75,6.85-4.78,2.06-9.59,4.07-14.38,6.12-4.63,1.98-9.25,4-13.87,6-5.18,2.23-10.37,4.44-15.55,6.68-4.5,1.95-8.98,3.94-13.49,5.89-3.24,1.4-6.51,2.74-9.75,4.13-2.73,1.17-5.44,2.4-8.17,3.56-2.89,1.24-5.8,2.42-8.69,3.65-8.2,3.5-16.39,7-24.59,10.51-7.24,3.1-14.48,6.22-21.73,9.31-4.12,1.76-8.26,3.45-12.38,5.21-4.99,2.13-9.95,4.31-14.94,6.44-6.22,2.65-12.45,5.26-18.67,7.9-4.91,2.09-9.81,4.2-14.73,6.28-6.03,2.55-12.06,5.08-18.09,7.63-6.19,2.61-12.36,5.25-18.56,7.85-7.11,2.98-14.23,5.93-21.34,8.9-5.13,2.14-10.24,4.31-15.37,6.43-8.32,3.43-16.64,6.86-25.18,9.72-8.46,2.83-17.11,4.95-25.94,6.34-7.78,1.22-15.6,1.61-23.45,1.3-7.03-.28-13.81-1.75-20.33-4.48-5.05-2.12-9.71-4.84-13.79-8.5-3.75-3.36-6.84-7.23-9.22-11.7-2.27-4.27-3.77-8.77-4.39-13.52-.41-3.15-.82-6.31-.54-9.51.39-4.58.56-9.19,1.46-13.72,1.19-6,2.84-11.87,5.17-17.54,2.01-4.89,4.2-9.71,6.85-14.3,3.18-5.52,6.29-11.08,9.7-16.45,6.77-10.66,14.48-20.64,22.71-30.22,5.05-5.88,10.34-11.55,15.71-17.13.58-.6,1.22-1.14,1.83-1.71.05.03.1.07.15.1Z"/>
</svg>