<svg width="65" height="34" viewBox="0 0 65 34" fill="none" xmlns="http://www.w3.org/2000/svg">
<path d="M10 18L65 18L65 16L10 16L10 18Z" fill="black"/>
<path d="M9 16C10.1819 16 11.3522 16.2328 12.4442 16.6851C13.5361 17.1374 14.5282 17.8003 15.364 18.636C16.1997 19.4718 16.8626 20.4639 17.3149 21.5558C17.7672 22.6478 18 23.8181 18 25L16.0178 25C16.0178 24.0784 15.8363 23.1658 15.4836 22.3144C15.1309 21.463 14.614 20.6893 13.9623 20.0377C13.3107 19.386 12.537 18.8691 11.6856 18.5164C10.8342 18.1637 9.92159 17.9822 9 17.9822L9 16Z" fill="black"/>
<path d="M18 9C18 11.3869 17.0518 13.6761 15.364 15.364C13.6761 17.0518 11.3869 18 9 18L9 16.0178C10.8612 16.0178 12.6462 15.2784 13.9623 13.9623C15.2784 12.6462 16.0178 10.8612 16.0178 9L18 9Z" fill="black"/>
</svg>
