<svg width="22" height="22" viewBox="0 0 22 22" fill="none" xmlns="http://www.w3.org/2000/svg">
<path d="M11 0.00056296C8.11346 -0.0287691 5.33338 1.08917 3.27073 3.10869C1.20809 5.1282 0.0316602 7.88405 0 10.7706C0.0111224 13.0517 0.744943 15.2707 2.09606 17.1087C3.44718 18.9467 5.34607 20.3093 7.52 21.0006C8.07 21.1006 8.27 20.7706 8.27 20.4806C8.27 20.1906 8.27 19.5506 8.27 18.6506C5.21 19.3006 4.56 17.2106 4.56 17.2106C4.3563 16.5545 3.92323 15.9936 3.34 15.6306C2.34 14.9706 3.42 14.9806 3.42 14.9806C3.76565 15.0268 4.09635 15.1506 4.38731 15.3429C4.67826 15.5351 4.92192 15.7907 5.1 16.0906C5.41033 16.6287 5.91953 17.0235 6.51801 17.1899C7.11649 17.3564 7.75639 17.2812 8.3 16.9806C8.35591 16.4329 8.60389 15.9228 9 15.5406C6.56 15.2706 4 14.3506 4 10.2206C3.97818 9.14324 4.37624 8.09967 5.11 7.31056C4.77583 6.38563 4.81529 5.36688 5.22 4.47056C5.22 4.47056 6.15 4.18056 8.22 5.57056C10.0219 5.0904 11.9181 5.0904 13.72 5.57056C15.82 4.18056 16.72 4.47056 16.72 4.47056C17.1247 5.36688 17.1642 6.38563 16.83 7.31056C17.5808 8.08521 18.0004 9.12178 18 10.2006C18 14.3406 15.42 15.2506 13 15.5206C13.265 15.7778 13.4697 16.0906 13.5994 16.4364C13.729 16.7822 13.7805 17.1525 13.75 17.5206V20.4706C13.75 20.4706 13.95 21.1006 14.5 20.9906C16.6678 20.295 18.5603 18.9321 19.9072 17.0967C21.2541 15.2613 21.9866 13.0471 22 10.7706C21.9683 7.88405 20.7919 5.1282 18.7293 3.10869C16.6666 1.08917 13.8865 -0.0287691 11 0.00056296Z" fill="black"/>
</svg>
