<svg width="19" height="14" viewBox="0 0 19 14" fill="none" xmlns="http://www.w3.org/2000/svg">
<path d="M12.6485 7.1794C12.8329 6.85488 12.7193 6.44211 12.3946 6.25795C12.0699 6.07347 11.6575 6.18738 11.473 6.51173C10.9022 7.51681 9.83258 8.14131 8.68157 8.14115L5.4522 8.14099C4.59464 8.14115 3.78821 7.80692 3.18204 7.20074C2.57554 6.59425 2.24163 5.78814 2.24163 4.93042C2.24163 4.07302 2.5757 3.26675 3.18204 2.66042C3.78837 2.05409 4.59448 1.72017 5.4522 1.72017L8.68156 1.72001C9.83274 1.72001 10.9031 2.34467 11.473 3.34911C11.6572 3.67347 12.0698 3.78785 12.3944 3.60305C12.719 3.41873 12.8329 3.00628 12.6485 2.68177C11.8386 1.25467 10.3182 0.367953 8.68141 0.368271L5.4522 0.368271C4.23348 0.368271 3.08772 0.842695 2.22602 1.7044C1.36415 2.56595 0.88957 3.71154 0.889888 4.93026C0.889888 6.14898 1.36431 7.29474 2.22602 8.15644C3.08772 9.01815 4.23332 9.49273 5.45204 9.49241L8.68141 9.49257C10.3178 9.49289 11.838 8.60649 12.6485 7.1794ZM18.8572 8.81678C18.8573 7.59822 18.3829 6.45247 17.5212 5.59076C16.6595 4.72905 15.5139 4.25447 14.2952 4.25479L11.0655 4.25463C9.42905 4.25431 7.90907 5.14087 7.09851 6.56797C6.91418 6.89248 7.02777 7.30589 7.35244 7.48941C7.67712 7.67389 8.08957 7.55999 8.27405 7.23563C8.84486 6.23055 9.91446 5.60605 11.0655 5.60621H14.295C15.1526 5.60605 15.959 5.94029 16.5652 6.54646C17.1713 7.15263 17.5056 7.95906 17.5054 8.81662C17.5054 9.67403 17.1715 10.4805 16.5652 11.0868C15.9587 11.6933 15.1526 12.0272 14.2948 12.0272L11.0656 12.0275C9.9143 12.0273 8.84454 11.4033 8.27405 10.3979C8.09021 10.0742 7.67744 9.95967 7.3526 10.144C7.02825 10.3285 6.91434 10.7409 7.09882 11.0656C7.3037 11.4266 7.55397 11.753 7.84025 12.0393C8.68555 12.8846 9.84325 13.3793 11.0656 13.3794L14.295 13.3793C15.5137 13.3793 16.6595 12.9048 17.5212 12.0431C18.3827 11.1813 18.8572 10.0355 18.8572 8.81678Z" fill="black"/>
</svg>
