<svg width="12" height="13" viewBox="0 0 12 13" fill="none" xmlns="http://www.w3.org/2000/svg">
<path fill-rule="evenodd" clip-rule="evenodd" d="M0.408461 0C0.394307 6.64633e-05 0.380167 0.000868875 0.366096 0.00240396C0.265477 0.0131112 0.17238 0.0608017 0.104773 0.136272C0.0371659 0.211742 -0.000159445 0.309641 5.11994e-07 0.411076L5.11994e-07 6.15653L5.11994e-07 11.8988C2.90519e-05 11.9699 0.018472 12.0397 0.0535228 12.1015C0.0885736 12.1633 0.13903 12.2148 0.19995 12.2512C0.260871 12.2875 0.330165 12.3074 0.401046 12.3088C0.471928 12.3103 0.541965 12.2932 0.604298 12.2594L5.90949 9.38825L11.2179 6.51712C11.2834 6.48215 11.3382 6.42997 11.3764 6.36617C11.4147 6.30237 11.4348 6.22935 11.4348 6.15493C11.4348 6.08051 11.4147 6.00748 11.3764 5.94368C11.3382 5.87988 11.2834 5.8277 11.2179 5.79273L5.90949 2.92161L0.604298 0.0504831C0.544258 0.0175008 0.476924 0.000143424 0.408461 0ZM0.819319 1.09861L5.52261 3.64279L10.1604 6.15333L5.52261 8.66706L0.819319 11.2112L0.819319 6.15653L0.819319 1.09861Z" fill="black"/>
</svg>
