<svg width="13" height="13" viewBox="0 0 13 13" fill="none" xmlns="http://www.w3.org/2000/svg">
<path d="M8.14455 1.17731L8.79944 0.553192C9.57339 -0.184397 10.9204 -0.184397 11.6943 0.553192L12.2227 1.05674C12.6097 1.42553 12.8255 1.91489 12.8255 2.43262C12.8255 2.95036 12.6097 3.44681 12.2227 3.80851L11.5678 4.43262L8.14455 1.17021V1.17731ZM7.35572 1.92908L0.576181 8.39007C0.360367 8.59575 0.226414 8.86525 0.204088 9.15603L0.00315818 11.234C-0.0191674 11.4965 0.0775768 11.7518 0.271065 11.9433C0.44967 12.1135 0.680368 12.2057 0.925949 12.2057C0.955716 12.2057 0.985484 12.2057 1.00781 12.2057L3.18827 12.0142C3.49339 11.9858 3.77618 11.8582 3.992 11.6525L10.7715 5.19149L7.34827 1.92908H7.35572Z" fill="black"/>
</svg>
