<svg width="34" height="34" viewBox="0 0 34 34" fill="none" xmlns="http://www.w3.org/2000/svg">
<circle cx="17" cy="17" r="16.25" stroke="#252320" stroke-width="1.5"/>
<mask id="path-2-inside-1_7_407" fill="white">
<path d="M5 29V26.5239C5 24.6069 6.50943 23.0094 8.32075 23.0094H25.6792C27.4906 23.0094 29 24.6069 29 26.5239V28.9201"/>
</mask>
<path d="M3.5 29C3.5 29.8284 4.17157 30.5 5 30.5C5.82843 30.5 6.5 29.8284 6.5 29H3.5ZM27.5 28.9201C27.5 29.7486 28.1716 30.4201 29 30.4201C29.8284 30.4201 30.5 29.7486 30.5 28.9201H27.5ZM6.5 29V26.5239H3.5V29H6.5ZM6.5 26.5239C6.5 25.3541 7.41686 24.5094 8.32075 24.5094V21.5094C5.60201 21.5094 3.5 23.8597 3.5 26.5239H6.5ZM8.32075 24.5094H25.6792V21.5094H8.32075V24.5094ZM25.6792 24.5094C26.5831 24.5094 27.5 25.3541 27.5 26.5239H30.5C30.5 23.8597 28.398 21.5094 25.6792 21.5094V24.5094ZM27.5 26.5239V28.9201H30.5V26.5239H27.5Z" fill="#252320" mask="url(#path-2-inside-1_7_407)"/>
<path d="M23.4953 13.2647C23.4953 17.126 20.5477 20.1827 17 20.1827C13.4522 20.1827 10.5047 17.126 10.5047 13.2647C10.5047 9.40341 13.4522 6.34677 17 6.34677C20.5477 6.34677 23.4953 9.40341 23.4953 13.2647Z" stroke="#252320" stroke-width="1.5" stroke-miterlimit="10" stroke-linecap="round" stroke-linejoin="round"/>
</svg>
