<svg width="24" height="23" viewBox="0 0 24 23" fill="none" xmlns="http://www.w3.org/2000/svg">
<mask id="path-1-inside-1_4_62" fill="white">
<path d="M0 22.369V20.0654C0 18.282 1.50943 16.7959 3.32075 16.7959H20.6792C22.4906 16.7959 24 18.282 24 20.0654V22.2947"/>
</mask>
<path d="M-1.5 22.369C-1.5 23.1974 -0.828427 23.869 0 23.869C0.828427 23.869 1.5 23.1974 1.5 22.369H-1.5ZM22.5 22.2947C22.5 23.1231 23.1716 23.7947 24 23.7947C24.8284 23.7947 25.5 23.1231 25.5 22.2947H22.5ZM1.5 22.369V20.0654H-1.5V22.369H1.5ZM1.5 20.0654C1.5 19.1324 2.3158 18.2959 3.32075 18.2959V15.2959C0.703069 15.2959 -1.5 17.4317 -1.5 20.0654H1.5ZM3.32075 18.2959H20.6792V15.2959H3.32075V18.2959ZM20.6792 18.2959C21.6842 18.2959 22.5 19.1324 22.5 20.0654H25.5C25.5 17.4317 23.2969 15.2959 20.6792 15.2959V18.2959ZM22.5 20.0654V22.2947H25.5V20.0654H22.5Z" fill="#252320" mask="url(#path-1-inside-1_4_62)"/>
<path d="M18.4953 7.73033C18.4953 11.2449 15.5983 14.1139 12 14.1139C8.40171 14.1139 5.5047 11.2449 5.5047 7.73033C5.5047 4.21573 8.40171 1.34677 12 1.34677C15.5983 1.34677 18.4953 4.21573 18.4953 7.73033Z" stroke="#252320" stroke-width="1.5" stroke-miterlimit="10" stroke-linecap="round" stroke-linejoin="round"/>
</svg>
