<svg width="13" height="17" viewBox="0 0 13 17" fill="none" xmlns="http://www.w3.org/2000/svg">
<path d="M1.04348 3.69181C0.456522 3.69181 0 4.17815 0 4.75292C0 5.3277 0.478261 5.81404 1.04348 5.81404H3.86957H7.56522C7.15217 6.74252 6.23913 7.40572 5.17391 7.40572H4.65217H1.52174C1.08696 7.40572 0.717391 7.671 0.543478 8.06892C0.391304 8.46684 0.478261 8.93108 0.76087 9.24057L8.08696 16.6905C8.28261 16.8895 8.56522 17 8.82609 17C9.08696 17 9.36956 16.8895 9.56522 16.6905C9.97826 16.2705 9.97826 15.6073 9.56522 15.1873L7.36957 12.9324L4.06522 9.55006H5.19565C5.36956 9.55006 5.54348 9.55006 5.69565 9.52796C7.69565 9.30689 9.34783 7.80364 9.78261 5.83615H11.9565C12.5435 5.83615 13 5.3498 13 4.77503C13 4.20026 12.5217 3.71391 11.9565 3.71391H9.78261C9.65217 3.13914 9.41304 2.60858 9.1087 2.12224H11.9565C12.5435 2.12224 13 1.63589 13 1.06112C13 0.486346 12.5217 0 11.9565 0H5.19565H1.52174H1.04348C0.456522 0 0 0.486346 0 1.06112C0 1.63589 0.478261 2.12224 1.04348 2.12224H1.52174H2.04348H5.19565C6.26087 2.12224 7.17391 2.78544 7.58696 3.71391H2.82609H1.04348V3.69181Z" fill="black"/>
</svg>
