<svg width="16" height="16" viewBox="0 0 16 16" fill="none" xmlns="http://www.w3.org/2000/svg">
<path d="M12.2829 16C12.083 16 11.883 15.9304 11.7163 15.8261L8.01679 13.4609L4.31723 15.8261C3.9506 16.0696 3.48402 16.0348 3.11739 15.7913C2.75076 15.513 2.58413 15.0609 2.68412 14.6087L3.68399 10.1913L0.384376 7.23479C0.051087 6.92176 -0.0822286 6.46958 0.051087 6.01739C0.184403 5.56521 0.551031 5.28697 0.984296 5.25218L5.35043 4.86956L7.01688 0.695651C7.18352 0.278261 7.58346 0 8.01675 0C8.45003 0 8.84996 0.278261 9.01661 0.695651L10.6831 4.86956L15.0157 5.25218C15.449 5.28696 15.8156 5.6 15.9489 6.01739C16.0822 6.46956 15.9489 6.92174 15.6156 7.23479L12.3495 10.1913L13.3494 14.6087C13.4494 15.0609 13.2827 15.513 12.9161 15.7913C12.7495 15.9304 12.5162 16 12.2829 16Z" fill="#FF9325"/>
</svg>
