<svg width="35" height="40" viewBox="0 0 35 40" fill="none" xmlns="http://www.w3.org/2000/svg">
<path d="M29.8184 24.5561C28.5392 23.6934 27.4108 22.7509 26.1298 22.1199C24.7139 21.4267 23.191 20.8113 21.6452 20.5514C19.8358 20.244 18.4291 21.3295 17.9684 22.934C17.4693 24.6521 18.1848 26.2022 19.9459 27.0637C22.2207 28.1714 24.6367 28.2818 27.0984 27.9568C27.6977 27.8798 28.2927 27.7499 28.8572 27.6528C31.6665 30.3148 31.5613 31.6666 27.9541 39.4872C29.1185 40.3069 29.9164 39.6306 30.6382 38.8172C33.0664 36.0902 33.7469 30.8989 32.1198 27.6544C31.9529 27.3252 31.7734 27.0042 31.5663 26.6169C31.9347 26.2476 32.2663 25.9422 32.565 25.6063C34.7125 23.1907 35.1561 20.09 33.4007 17.3769C32.3864 15.8134 31.0196 14.4033 29.5801 13.1997C27.0966 11.1295 24.1437 9.80491 21.0792 8.83502C17.3761 7.66719 13.6126 6.67793 9.88121 5.60628C9.32168 5.44622 8.76977 5.25951 8.04882 5.02954C9.12089 4.20103 10.057 3.58118 10.8453 2.81394C11.1459 2.52182 11.3555 1.61444 11.1857 1.4582C10.8145 1.11973 10.1682 1.07642 9.62766 0.950628C9.50731 0.923831 9.34918 1.04985 9.20842 1.11217C6.98356 2.08227 4.77189 3.08328 2.53136 4.01329C0.55185 4.834 0.285784 5.32845 1.0924 7.29206C2.02028 9.543 3.61831 11.265 5.5344 12.705C6.15552 13.1684 6.86501 13.5392 7.60169 12.5792C7.18308 10.4476 4.95583 9.4256 3.94753 7.26017C4.7798 7.39143 5.35113 7.43024 5.8932 7.58022C10.6009 8.84297 15.3525 9.97586 19.9912 11.4588C22.5042 12.2616 24.9197 13.5087 27.203 14.8503C28.6049 15.6752 29.8721 16.9152 30.8625 18.2243C32.5272 20.4156 32.1058 22.5705 29.8139 24.5574L29.8184 24.5561ZM26.4654 25.0068L26.2848 25.5817C24.8108 25.8832 23.3372 25.8008 21.8861 25.3433C20.5428 24.9209 19.9521 24.2771 20.3058 23.5771C20.8054 22.5773 21.7235 22.8085 22.4746 23.1141C23.8385 23.6687 25.1427 24.3673 26.4712 25.0102L26.4654 25.0068Z" fill="black"/>
</svg>
