<svg width="74" height="56" viewBox="0 0 74 56" fill="none" xmlns="http://www.w3.org/2000/svg">
<path d="M72.4066 9.66077C73.4205 8.64687 73.9412 7.44114 73.9686 6.04359C73.996 4.61864 73.5164 3.39922 72.5299 2.38531C71.516 1.3714 70.3103 0.85075 68.9127 0.823347C67.4878 0.795944 66.2684 1.2892 65.2545 2.3031L23.287 42.9553L9.06488 27.1712C8.10578 26.1025 6.92746 25.5407 5.52991 25.4859C4.10497 25.4037 2.87184 25.8285 1.83053 26.7602C0.761817 27.7193 0.200058 28.8976 0.145252 30.2951C0.0630437 31.7201 0.487788 32.9669 1.41949 34.0356L19.1765 53.8068C19.8068 54.4919 20.5741 54.9851 21.4784 55.2865C22.3827 55.5606 23.287 55.588 24.1913 55.3687C25.0956 55.1221 25.8902 54.6837 26.5753 54.0534L72.4066 9.66077Z" fill="black"/>
</svg>
