<svg width="24" height="24" viewBox="0 0 24 24" fill="none" xmlns="http://www.w3.org/2000/svg">
<path fill-rule="evenodd" clip-rule="evenodd" d="M0 6.62644C0 2.97263 2.97263 0 6.62644 0H17.3737C21.0275 0 24 2.97263 24 6.62644V17.3737C24 21.0275 21.0275 24 17.3737 24H6.62644C2.97263 24 0 21.0275 0 17.3737V6.62644ZM7.23497 12C7.23497 14.6274 9.37257 16.765 12 16.765C14.6274 16.765 16.765 14.6274 16.765 12C16.765 9.37257 14.6274 7.23497 12 7.23497C9.37257 7.23497 7.23497 9.37257 7.23497 12ZM5.69053 12C5.69053 8.52088 8.52088 5.69053 12 5.69053C15.4791 5.69053 18.3095 8.52088 18.3095 12C18.3095 15.4791 15.4791 18.3095 12 18.3095C8.52088 18.3095 5.69053 15.4791 5.69053 12ZM19.6858 2.54512C20.6004 2.54512 21.3418 3.28657 21.3418 4.20119C21.3418 5.11584 20.6004 5.85729 19.6858 5.85729C18.7711 5.85729 18.0297 5.11584 18.0297 4.20119C18.0297 3.28657 18.7711 2.54512 19.6858 2.54512Z" fill="black"/>
</svg>
