<svg width="17" height="17" viewBox="0 0 17 17" fill="none" xmlns="http://www.w3.org/2000/svg">
<path d="M6.11111 3.7198C5.82924 3.7198 5.55891 3.83178 5.3596 4.03109C5.16028 4.2304 5.04831 4.50073 5.04831 4.78261V5.84541C5.04831 6.69103 5.38423 7.50201 5.98217 8.09995C6.58011 8.6979 7.3911 9.03382 8.23672 9.03382C9.08234 9.03382 9.89332 8.6979 10.4913 8.09995C11.0892 7.50201 11.4251 6.69103 11.4251 5.84541V4.78261C11.4251 4.50073 11.3132 4.2304 11.1138 4.03109C10.9145 3.83178 10.6442 3.7198 10.3623 3.7198C10.0804 3.7198 9.81012 3.83178 9.61081 4.03109C9.41149 4.2304 9.29952 4.50073 9.29952 4.78261V5.84541C9.29952 6.12728 9.18755 6.39761 8.98823 6.59692C8.78892 6.79624 8.51859 6.90821 8.23672 6.90821C7.95484 6.90821 7.68452 6.79624 7.4852 6.59692C7.28589 6.39761 7.17391 6.12728 7.17391 5.84541V4.78261C7.17391 4.50073 7.06194 4.2304 6.86263 4.03109C6.66331 3.83178 6.39298 3.7198 6.11111 3.7198Z" fill="black"/>
<path d="M9.29951 13.0379C9.29951 13.3198 9.41149 13.5901 9.6108 13.7894C9.81011 13.9888 10.0804 14.1007 10.3623 14.1007H13.9068L12.7988 15.2087C12.6049 15.4004 12.4921 15.6592 12.4837 15.9317C12.4753 16.2042 12.572 16.4695 12.7536 16.6727C12.8564 16.7784 12.9793 16.8624 13.115 16.9197C13.2508 16.977 13.3967 17.0066 13.5441 17.0066C13.6915 17.0066 13.8374 16.977 13.9731 16.9197C14.1089 16.8624 14.2318 16.7784 14.3345 16.6727L16.3087 14.6986C16.548 14.4642 16.7341 14.1811 16.8542 13.8684C16.9743 13.5557 17.0257 13.2208 17.0048 12.8865C16.9564 12.2912 16.6929 11.734 16.2635 11.3188L14.3053 9.36063C14.2031 9.25839 14.0812 9.17806 13.9469 9.12456C13.8126 9.07107 13.6688 9.04553 13.5243 9.04951C13.3798 9.05348 13.2376 9.0869 13.1065 9.14771C12.9754 9.20851 12.858 9.29543 12.7616 9.40314C12.5821 9.61754 12.4907 9.89213 12.506 10.1713C12.5213 10.4505 12.6421 10.7135 12.844 10.907L13.9068 11.9698H10.3623C10.2223 11.9698 10.0837 11.9975 9.95437 12.0512C9.82507 12.105 9.70768 12.1837 9.60892 12.283C9.51016 12.3822 9.43198 12.5 9.37888 12.6296C9.32579 12.7591 9.29881 12.8979 9.29951 13.0379Z" fill="black"/>
<path d="M3.18841 17.0048H7.17392C7.45579 17.0048 7.72612 16.8929 7.92543 16.6936C8.12475 16.4942 8.23672 16.2239 8.23672 15.942C8.23672 15.6602 8.12475 15.3898 7.92543 15.1905C7.72612 14.9912 7.45579 14.8792 7.17392 14.8792H3.18841C2.90653 14.8792 2.63621 14.7673 2.43689 14.5679C2.23758 14.3686 2.1256 14.0983 2.1256 13.8164V3.18841C2.1256 2.90653 2.23758 2.63621 2.43689 2.43689C2.63621 2.23758 2.90653 2.12561 3.18841 2.12561H13.285C13.5669 2.12561 13.8372 2.23758 14.0365 2.43689C14.2359 2.63621 14.3478 2.90653 14.3478 3.18841V6.11111C14.3478 6.39299 14.4598 6.66332 14.6591 6.86263C14.8584 7.06194 15.1288 7.17392 15.4106 7.17392C15.6925 7.17392 15.9628 7.06194 16.1622 6.86263C16.3615 6.66332 16.4734 6.39299 16.4734 6.11111V3.18841C16.4734 2.34279 16.1375 1.53181 15.5396 0.933863C14.9416 0.335921 14.1306 0 13.285 0H3.18841C2.34279 0 1.53181 0.335921 0.933863 0.933863C0.335921 1.53181 0 2.34279 0 3.18841V13.8164C0 14.6621 0.335921 15.473 0.933863 16.071C1.53181 16.6689 2.34279 17.0048 3.18841 17.0048Z" fill="black"/>
</svg>
